<svg width="32" height="32" viewBox="0 0 32 32" xmlns="http://www.w3.org/2000/svg">
  <path fill="#FF7A00" d="M16 30C10.5 30 6 25.5 6 20C6 17 8 14.5 10.5 13C8 11.5 6 9 6 6C6 0.5 10.5 -4 16 -4C21.5 -4 26 0.5 26 6C26 9 24 11.5 21.5 13C24 14.5 26 17 26 20C26 25.5 21.5 30 16 30ZM16 2C13.5 2 11.5 4 11.5 6C11.5 8 13.5 10 16 10C18.5 10 20.5 8 20.5 6C20.5 4 18.5 2 16 2ZM16 16C13.5 16 11.5 18 11.5 20C11.5 22 13.5 24 16 24C18.5 24 20.5 22 20.5 20C20.5 18 18.5 16 16 16Z" transform="translate(0 6)"/>
</svg>