<svg width="200" height="60" viewBox="0 0 200 60" xmlns="http://www.w3.org/2000/svg">
  <defs>
    <style>
      .logo-orange { fill: #FF7A00; }
      .logo-light { fill: #FFFFFF; }
    </style>
  </defs>
  
  <!-- Orange S -->
  <path class="logo-orange" d="M15 45C8.5 45 3 40.5 3 34C3 30 5.5 26.5 9 24.5C5.5 22.5 3 19 3 15C3 8.5 8.5 4 15 4C21.5 4 27 8.5 27 15C27 19 24.5 22.5 21 24.5C24.5 26.5 27 30 27 34C27 40.5 21.5 45 15 45ZM15 9C11.5 9 8.5 11.5 8.5 15C8.5 18.5 11.5 21 15 21C18.5 21 21.5 18.5 21.5 15C21.5 11.5 18.5 9 15 9ZM15 28C11.5 28 8.5 30.5 8.5 34C8.5 37.5 11.5 40 15 40C18.5 40 21.5 37.5 21.5 34C21.5 30.5 18.5 28 15 28Z"/>
  
  <!-- subfix text -->
  <text x="40" y="37" font-family="Arial, sans-serif" font-size="28" font-weight="600" class="logo-light">subfix</text>
</svg>